<mxfile host="app.diagrams.net" modified="2021-01-10T11:57:53.781Z" agent="5.0 (Macintosh; Intel Mac OS X 10_15_5) AppleWebKit/537.36 (KHTML, like Gecko) Chrome/87.0.4280.88 Safari/537.36" etag="u_ow3fkFk8t9BFZS81LW" version="14.1.8" type="github" pages="3">
  <diagram id="bsD2x_KO6xM0R5m1DpQU" name="通用架构">
    <mxGraphModel dx="2125" dy="834" grid="1" gridSize="10" guides="1" tooltips="1" connect="1" arrows="1" fold="1" page="1" pageScale="1" pageWidth="827" pageHeight="1169" math="0" shadow="0">
      <root>
        <mxCell id="0" />
        <mxCell id="1" parent="0" />
        <mxCell id="wW9nk24ufCQ6Eqpu4SKE-22" value="" style="rounded=0;whiteSpace=wrap;html=1;" parent="1" vertex="1">
          <mxGeometry x="140" y="315" width="590" height="195" as="geometry" />
        </mxCell>
        <mxCell id="wW9nk24ufCQ6Eqpu4SKE-6" value="" style="rounded=0;whiteSpace=wrap;html=1;" parent="1" vertex="1">
          <mxGeometry x="140" y="210" width="280" height="50" as="geometry" />
        </mxCell>
        <mxCell id="wW9nk24ufCQ6Eqpu4SKE-2" value="Mars(tcp) /JSSDK(websocket)" style="rounded=0;whiteSpace=wrap;html=1;fillColor=#1ba1e2;strokeColor=#006EAF;fontColor=#ffffff;" parent="1" vertex="1">
          <mxGeometry x="140" y="110" width="590" height="40" as="geometry" />
        </mxCell>
        <mxCell id="wW9nk24ufCQ6Eqpu4SKE-4" value="proxy" style="rounded=1;whiteSpace=wrap;html=1;fillColor=#60a917;strokeColor=#2D7600;fontColor=#ffffff;" parent="1" vertex="1">
          <mxGeometry x="150" y="220" width="80" height="30" as="geometry" />
        </mxCell>
        <mxCell id="wW9nk24ufCQ6Eqpu4SKE-5" value="proxy" style="rounded=1;whiteSpace=wrap;html=1;fillColor=#60a917;strokeColor=#2D7600;fontColor=#ffffff;" parent="1" vertex="1">
          <mxGeometry x="240" y="220" width="80" height="30" as="geometry" />
        </mxCell>
        <mxCell id="wW9nk24ufCQ6Eqpu4SKE-7" value="IDC1:电信" style="text;html=1;strokeColor=none;fillColor=none;align=center;verticalAlign=middle;whiteSpace=wrap;rounded=0;" parent="1" vertex="1">
          <mxGeometry x="150" y="170" width="60" height="20" as="geometry" />
        </mxCell>
        <mxCell id="wW9nk24ufCQ6Eqpu4SKE-9" value="" style="rounded=0;whiteSpace=wrap;html=1;" parent="1" vertex="1">
          <mxGeometry x="430" y="210" width="310" height="50" as="geometry" />
        </mxCell>
        <mxCell id="wW9nk24ufCQ6Eqpu4SKE-10" value="proxy" style="rounded=1;whiteSpace=wrap;html=1;fillColor=#60a917;strokeColor=#2D7600;fontColor=#ffffff;" parent="1" vertex="1">
          <mxGeometry x="446" y="218" width="80" height="30" as="geometry" />
        </mxCell>
        <mxCell id="wW9nk24ufCQ6Eqpu4SKE-11" value="proxy" style="rounded=1;whiteSpace=wrap;html=1;fillColor=#60a917;strokeColor=#2D7600;fontColor=#ffffff;" parent="1" vertex="1">
          <mxGeometry x="540" y="218" width="80" height="30" as="geometry" />
        </mxCell>
        <mxCell id="wW9nk24ufCQ6Eqpu4SKE-12" value="IDC2:联通" style="text;html=1;strokeColor=none;fillColor=none;align=center;verticalAlign=middle;whiteSpace=wrap;rounded=0;" parent="1" vertex="1">
          <mxGeometry x="386" y="168" width="60" height="20" as="geometry" />
        </mxCell>
        <mxCell id="wW9nk24ufCQ6Eqpu4SKE-17" value="apiService" style="rounded=1;whiteSpace=wrap;html=1;fillColor=#f0a30a;strokeColor=#BD7000;fontColor=#ffffff;" parent="1" vertex="1">
          <mxGeometry x="330" y="330" width="80" height="30" as="geometry" />
        </mxCell>
        <mxCell id="wW9nk24ufCQ6Eqpu4SKE-18" value="redis" style="rounded=1;whiteSpace=wrap;html=1;fillColor=#f0a30a;strokeColor=#BD7000;fontColor=#ffffff;" parent="1" vertex="1">
          <mxGeometry x="170" y="424" width="80" height="30" as="geometry" />
        </mxCell>
        <mxCell id="wW9nk24ufCQ6Eqpu4SKE-19" value="pushService" style="rounded=1;whiteSpace=wrap;html=1;fillColor=#f0a30a;strokeColor=#BD7000;fontColor=#ffffff;" parent="1" vertex="1">
          <mxGeometry x="170" y="330" width="80" height="30" as="geometry" />
        </mxCell>
        <mxCell id="bDoEGVB2bOE2O_HxwMG5-1" value="" style="endArrow=classic;html=1;entryX=0.5;entryY=0;entryDx=0;entryDy=0;" parent="1" target="wW9nk24ufCQ6Eqpu4SKE-17" edge="1">
          <mxGeometry width="50" height="50" relative="1" as="geometry">
            <mxPoint x="510" y="261" as="sourcePoint" />
            <mxPoint x="190" y="510" as="targetPoint" />
          </mxGeometry>
        </mxCell>
        <mxCell id="bDoEGVB2bOE2O_HxwMG5-2" value="" style="endArrow=classic;html=1;entryX=0.371;entryY=0.022;entryDx=0;entryDy=0;entryPerimeter=0;" parent="1" target="bDoEGVB2bOE2O_HxwMG5-5" edge="1">
          <mxGeometry width="50" height="50" relative="1" as="geometry">
            <mxPoint x="510" y="260" as="sourcePoint" />
            <mxPoint x="190" y="510" as="targetPoint" />
          </mxGeometry>
        </mxCell>
        <mxCell id="bDoEGVB2bOE2O_HxwMG5-3" value="1.认证鉴权&lt;br&gt;2.心跳&lt;br&gt;3.上下线&lt;br&gt;4.进出群" style="text;html=1;strokeColor=none;fillColor=none;align=center;verticalAlign=middle;whiteSpace=wrap;rounded=0;" parent="1" vertex="1">
          <mxGeometry x="329" y="280" width="137" height="20" as="geometry" />
        </mxCell>
        <mxCell id="bDoEGVB2bOE2O_HxwMG5-5" value="imService" style="rounded=1;whiteSpace=wrap;html=1;fillColor=#f0a30a;strokeColor=#BD7000;fontColor=#ffffff;" parent="1" vertex="1">
          <mxGeometry x="480" y="330" width="80" height="30" as="geometry" />
        </mxCell>
        <mxCell id="bDoEGVB2bOE2O_HxwMG5-11" value="转发聊天消息" style="text;html=1;strokeColor=none;fillColor=none;align=center;verticalAlign=middle;whiteSpace=wrap;rounded=0;" parent="1" vertex="1">
          <mxGeometry x="520" y="280" width="40" height="20" as="geometry" />
        </mxCell>
        <mxCell id="bDoEGVB2bOE2O_HxwMG5-12" value="" style="endArrow=classic;html=1;exitX=0;exitY=0.5;exitDx=0;exitDy=0;entryX=1;entryY=0.5;entryDx=0;entryDy=0;" parent="1" source="bDoEGVB2bOE2O_HxwMG5-5" target="wW9nk24ufCQ6Eqpu4SKE-17" edge="1">
          <mxGeometry width="50" height="50" relative="1" as="geometry">
            <mxPoint x="140" y="560" as="sourcePoint" />
            <mxPoint x="190" y="510" as="targetPoint" />
          </mxGeometry>
        </mxCell>
        <mxCell id="bDoEGVB2bOE2O_HxwMG5-15" value="" style="endArrow=classic;html=1;exitX=0;exitY=0.75;exitDx=0;exitDy=0;entryX=1;entryY=0.75;entryDx=0;entryDy=0;" parent="1" edge="1">
          <mxGeometry width="50" height="50" relative="1" as="geometry">
            <mxPoint x="330" y="344.5" as="sourcePoint" />
            <mxPoint x="250" y="344.5" as="targetPoint" />
          </mxGeometry>
        </mxCell>
        <mxCell id="bDoEGVB2bOE2O_HxwMG5-16" value="单播、广播" style="text;html=1;strokeColor=none;fillColor=none;align=center;verticalAlign=middle;whiteSpace=wrap;rounded=0;" parent="1" vertex="1">
          <mxGeometry x="410" y="320" width="70" height="20" as="geometry" />
        </mxCell>
        <mxCell id="bDoEGVB2bOE2O_HxwMG5-17" value="单播、广播" style="text;html=1;strokeColor=none;fillColor=none;align=center;verticalAlign=middle;whiteSpace=wrap;rounded=0;" parent="1" vertex="1">
          <mxGeometry x="252" y="324" width="70" height="20" as="geometry" />
        </mxCell>
        <mxCell id="bDoEGVB2bOE2O_HxwMG5-18" value="" style="endArrow=classic;html=1;exitX=0.5;exitY=0;exitDx=0;exitDy=0;entryX=0.25;entryY=1;entryDx=0;entryDy=0;" parent="1" source="wW9nk24ufCQ6Eqpu4SKE-19" target="wW9nk24ufCQ6Eqpu4SKE-6" edge="1">
          <mxGeometry width="50" height="50" relative="1" as="geometry">
            <mxPoint x="140" y="560" as="sourcePoint" />
            <mxPoint x="210" y="270" as="targetPoint" />
          </mxGeometry>
        </mxCell>
        <mxCell id="bDoEGVB2bOE2O_HxwMG5-19" value="单播、广播" style="text;html=1;strokeColor=none;fillColor=none;align=center;verticalAlign=middle;whiteSpace=wrap;rounded=0;" parent="1" vertex="1">
          <mxGeometry x="179" y="282" width="70" height="20" as="geometry" />
        </mxCell>
        <mxCell id="bDoEGVB2bOE2O_HxwMG5-20" value="" style="endArrow=classic;html=1;exitX=0.5;exitY=1;exitDx=0;exitDy=0;" parent="1" source="wW9nk24ufCQ6Eqpu4SKE-19" target="wW9nk24ufCQ6Eqpu4SKE-18" edge="1">
          <mxGeometry width="50" height="50" relative="1" as="geometry">
            <mxPoint x="140" y="560" as="sourcePoint" />
            <mxPoint x="190" y="510" as="targetPoint" />
          </mxGeometry>
        </mxCell>
        <mxCell id="bDoEGVB2bOE2O_HxwMG5-22" value="authService" style="rounded=1;whiteSpace=wrap;html=1;fillColor=#f0a30a;strokeColor=#BD7000;fontColor=#ffffff;" parent="1" vertex="1">
          <mxGeometry x="330" y="429" width="80" height="30" as="geometry" />
        </mxCell>
        <mxCell id="bDoEGVB2bOE2O_HxwMG5-23" value="" style="endArrow=classic;html=1;entryX=0.5;entryY=0;entryDx=0;entryDy=0;exitX=0.5;exitY=1;exitDx=0;exitDy=0;" parent="1" source="wW9nk24ufCQ6Eqpu4SKE-17" target="bDoEGVB2bOE2O_HxwMG5-22" edge="1">
          <mxGeometry width="50" height="50" relative="1" as="geometry">
            <mxPoint x="140" y="560" as="sourcePoint" />
            <mxPoint x="190" y="510" as="targetPoint" />
          </mxGeometry>
        </mxCell>
        <mxCell id="bDoEGVB2bOE2O_HxwMG5-24" value="checkToken" style="text;html=1;strokeColor=none;fillColor=none;align=center;verticalAlign=middle;whiteSpace=wrap;rounded=0;" parent="1" vertex="1">
          <mxGeometry x="320" y="387.5" width="40" height="20" as="geometry" />
        </mxCell>
        <mxCell id="bDoEGVB2bOE2O_HxwMG5-25" value="1.uid-&amp;gt;connetion&lt;br&gt;2.groupId-&amp;gt;connetionList" style="text;html=1;strokeColor=none;fillColor=none;align=center;verticalAlign=middle;whiteSpace=wrap;rounded=0;" parent="1" vertex="1">
          <mxGeometry x="-20" y="200" width="150" height="50" as="geometry" />
        </mxCell>
        <mxCell id="bDoEGVB2bOE2O_HxwMG5-26" value="" style="endArrow=classic;html=1;exitX=0.25;exitY=0;exitDx=0;exitDy=0;" parent="1" source="wW9nk24ufCQ6Eqpu4SKE-6" edge="1">
          <mxGeometry width="50" height="50" relative="1" as="geometry">
            <mxPoint x="211" y="153" as="sourcePoint" />
            <mxPoint x="210" y="153" as="targetPoint" />
          </mxGeometry>
        </mxCell>
        <mxCell id="bDoEGVB2bOE2O_HxwMG5-27" value="" style="endArrow=classic;html=1;entryX=0.75;entryY=0;entryDx=0;entryDy=0;" parent="1" edge="1">
          <mxGeometry width="50" height="50" relative="1" as="geometry">
            <mxPoint x="614.5" y="152" as="sourcePoint" />
            <mxPoint x="614.5" y="210" as="targetPoint" />
          </mxGeometry>
        </mxCell>
        <mxCell id="qn0rlDkQ1B8nhi_zscxB-3" value="" style="endArrow=classic;html=1;entryX=0.5;entryY=1;entryDx=0;entryDy=0;" parent="1" edge="1">
          <mxGeometry width="50" height="50" relative="1" as="geometry">
            <mxPoint x="240" y="107" as="sourcePoint" />
            <mxPoint x="240" y="50.35000000000002" as="targetPoint" />
          </mxGeometry>
        </mxCell>
        <mxCell id="qn0rlDkQ1B8nhi_zscxB-4" value="" style="endArrow=classic;html=1;exitX=0.5;exitY=1;exitDx=0;exitDy=0;entryX=0.806;entryY=-0.083;entryDx=0;entryDy=0;entryPerimeter=0;" parent="1" source="qn0rlDkQ1B8nhi_zscxB-6" target="wW9nk24ufCQ6Eqpu4SKE-2" edge="1">
          <mxGeometry width="50" height="50" relative="1" as="geometry">
            <mxPoint x="528" y="50.35000000000002" as="sourcePoint" />
            <mxPoint x="539" y="218" as="targetPoint" />
          </mxGeometry>
        </mxCell>
        <mxCell id="qn0rlDkQ1B8nhi_zscxB-5" value="mobile" style="rounded=0;whiteSpace=wrap;html=1;fillColor=#fff2cc;strokeColor=#d6b656;" parent="1" vertex="1">
          <mxGeometry x="210" y="30" width="50" height="20" as="geometry" />
        </mxCell>
        <mxCell id="qn0rlDkQ1B8nhi_zscxB-6" value="mobile" style="rounded=0;whiteSpace=wrap;html=1;fillColor=#fff2cc;strokeColor=#d6b656;" parent="1" vertex="1">
          <mxGeometry x="590" y="30" width="50" height="20" as="geometry" />
        </mxCell>
        <mxCell id="HvTuLi2SZUOxGm0iaF9G-3" style="edgeStyle=orthogonalEdgeStyle;rounded=0;orthogonalLoop=1;jettySize=auto;html=1;exitX=0.5;exitY=1;exitDx=0;exitDy=0;" parent="1" source="bDoEGVB2bOE2O_HxwMG5-24" target="bDoEGVB2bOE2O_HxwMG5-24" edge="1">
          <mxGeometry relative="1" as="geometry" />
        </mxCell>
        <mxCell id="HvTuLi2SZUOxGm0iaF9G-4" value="kafka" style="rounded=1;whiteSpace=wrap;html=1;fillColor=#f0a30a;strokeColor=#BD7000;fontColor=#ffffff;" parent="1" vertex="1">
          <mxGeometry x="480" y="429" width="80" height="30" as="geometry" />
        </mxCell>
        <mxCell id="HvTuLi2SZUOxGm0iaF9G-5" value="mysql cluster" style="rounded=1;whiteSpace=wrap;html=1;fillColor=#f0a30a;strokeColor=#BD7000;fontColor=#ffffff;" parent="1" vertex="1">
          <mxGeometry x="610" y="330" width="100" height="30" as="geometry" />
        </mxCell>
        <mxCell id="HvTuLi2SZUOxGm0iaF9G-7" value="consumerService" style="rounded=1;whiteSpace=wrap;html=1;fillColor=#f0a30a;strokeColor=#BD7000;fontColor=#ffffff;" parent="1" vertex="1">
          <mxGeometry x="615" y="429" width="90" height="30" as="geometry" />
        </mxCell>
        <mxCell id="HvTuLi2SZUOxGm0iaF9G-8" value="" style="endArrow=classic;html=1;exitX=0.5;exitY=1;exitDx=0;exitDy=0;" parent="1" source="bDoEGVB2bOE2O_HxwMG5-5" target="HvTuLi2SZUOxGm0iaF9G-4" edge="1">
          <mxGeometry width="50" height="50" relative="1" as="geometry">
            <mxPoint x="553" y="560" as="sourcePoint" />
            <mxPoint x="603" y="510" as="targetPoint" />
          </mxGeometry>
        </mxCell>
        <mxCell id="HvTuLi2SZUOxGm0iaF9G-9" value="" style="endArrow=classic;html=1;exitX=1;exitY=0.5;exitDx=0;exitDy=0;" parent="1" source="bDoEGVB2bOE2O_HxwMG5-5" target="HvTuLi2SZUOxGm0iaF9G-5" edge="1">
          <mxGeometry width="50" height="50" relative="1" as="geometry">
            <mxPoint x="140" y="560" as="sourcePoint" />
            <mxPoint x="190" y="510" as="targetPoint" />
          </mxGeometry>
        </mxCell>
        <mxCell id="HvTuLi2SZUOxGm0iaF9G-10" value="" style="endArrow=classic;html=1;exitX=0.5;exitY=0;exitDx=0;exitDy=0;entryX=0.5;entryY=1;entryDx=0;entryDy=0;" parent="1" source="HvTuLi2SZUOxGm0iaF9G-7" target="HvTuLi2SZUOxGm0iaF9G-5" edge="1">
          <mxGeometry width="50" height="50" relative="1" as="geometry">
            <mxPoint x="140" y="560" as="sourcePoint" />
            <mxPoint x="190" y="510" as="targetPoint" />
          </mxGeometry>
        </mxCell>
        <mxCell id="HvTuLi2SZUOxGm0iaF9G-13" value="proxy" style="rounded=1;whiteSpace=wrap;html=1;fillColor=#60a917;strokeColor=#2D7600;fontColor=#ffffff;" parent="1" vertex="1">
          <mxGeometry x="630" y="220" width="80" height="30" as="geometry" />
        </mxCell>
        <mxCell id="HvTuLi2SZUOxGm0iaF9G-14" value="proxy" style="rounded=1;whiteSpace=wrap;html=1;fillColor=#60a917;strokeColor=#2D7600;fontColor=#ffffff;" parent="1" vertex="1">
          <mxGeometry x="330" y="220" width="80" height="30" as="geometry" />
        </mxCell>
        <mxCell id="HvTuLi2SZUOxGm0iaF9G-17" style="edgeStyle=orthogonalEdgeStyle;rounded=0;orthogonalLoop=1;jettySize=auto;html=1;exitX=0.5;exitY=1;exitDx=0;exitDy=0;" parent="1" edge="1">
          <mxGeometry relative="1" as="geometry">
            <mxPoint x="445" y="407.5" as="sourcePoint" />
            <mxPoint x="445" y="407.5" as="targetPoint" />
          </mxGeometry>
        </mxCell>
        <mxCell id="HvTuLi2SZUOxGm0iaF9G-18" value="普通群写扩散，异步写到kafka" style="text;html=1;strokeColor=none;fillColor=none;align=center;verticalAlign=middle;whiteSpace=wrap;rounded=0;" parent="1" vertex="1">
          <mxGeometry x="521" y="387.5" width="90" height="20" as="geometry" />
        </mxCell>
        <mxCell id="HvTuLi2SZUOxGm0iaF9G-19" value="异步写收信箱" style="text;html=1;strokeColor=none;fillColor=none;align=center;verticalAlign=middle;whiteSpace=wrap;rounded=0;" parent="1" vertex="1">
          <mxGeometry x="665" y="387.5" width="40" height="20" as="geometry" />
        </mxCell>
        <mxCell id="HvTuLi2SZUOxGm0iaF9G-20" value="大群读扩散，直接写发信箱" style="text;html=1;strokeColor=none;fillColor=none;align=center;verticalAlign=middle;whiteSpace=wrap;rounded=0;" parent="1" vertex="1">
          <mxGeometry x="560" y="304" width="75" height="20" as="geometry" />
        </mxCell>
        <mxCell id="HvTuLi2SZUOxGm0iaF9G-21" value="&lt;div style=&quot;text-align: justify&quot;&gt;&lt;ul&gt;&lt;li&gt;&lt;span style=&quot;font-weight: normal&quot;&gt;&lt;font style=&quot;font-size: 12px&quot;&gt;proxy:部署在边缘机房，客户端通过智能dns就近接入本地缓存uid-&amp;gt;connection对应关系&lt;/font&gt;&lt;/span&gt;&lt;/li&gt;&lt;li&gt;&lt;span&gt;apiService：处理认证、心跳、上下线，提供单播、广播、多播、查询在线用户列表接口&lt;/span&gt;&lt;/li&gt;&lt;li&gt;&lt;span&gt;pushService:单播，广播，接收到消息后转发给proxy，之后再由proxy把消息下发出去&lt;/span&gt;&lt;/li&gt;&lt;li&gt;imService:聊天服务器，处理单聊群聊，离线消息&lt;/li&gt;&lt;li&gt;cosumerService:对普通群消息进行异步写扩散&lt;/li&gt;&lt;li&gt;&lt;span&gt;authService:认证服务&lt;/span&gt;&lt;/li&gt;&lt;/ul&gt;&lt;/div&gt;&lt;div style=&quot;text-align: justify&quot;&gt;&lt;span style=&quot;font-weight: normal&quot;&gt;&lt;font style=&quot;font-size: 12px&quot;&gt;&lt;br&gt;&lt;/font&gt;&lt;/span&gt;&lt;/div&gt;" style="text;html=1;strokeColor=none;fillColor=none;spacing=5;spacingTop=-20;whiteSpace=wrap;overflow=hidden;rounded=0;" parent="1" vertex="1">
          <mxGeometry x="230" y="520" width="500" height="150" as="geometry" />
        </mxCell>
        <mxCell id="HvTuLi2SZUOxGm0iaF9G-22" value="" style="endArrow=classic;html=1;entryX=0.5;entryY=0;entryDx=0;entryDy=0;" parent="1" target="wW9nk24ufCQ6Eqpu4SKE-18" edge="1">
          <mxGeometry width="50" height="50" relative="1" as="geometry">
            <mxPoint x="370" y="360" as="sourcePoint" />
            <mxPoint x="190" y="670" as="targetPoint" />
          </mxGeometry>
        </mxCell>
        <mxCell id="Mj50uXpJaBh8ic_J06-e-1" value="" style="endArrow=classic;html=1;entryX=0;entryY=0.5;entryDx=0;entryDy=0;" parent="1" target="HvTuLi2SZUOxGm0iaF9G-7" edge="1">
          <mxGeometry width="50" height="50" relative="1" as="geometry">
            <mxPoint x="560" y="444" as="sourcePoint" />
            <mxPoint x="420" y="400" as="targetPoint" />
          </mxGeometry>
        </mxCell>
        <mxCell id="l7Kzv_25Hi89_dFMWtTq-1" value="有状态服务:&lt;br&gt;1.uid-&amp;gt;serverId&lt;br&gt;2.onlineLIst" style="text;html=1;strokeColor=none;fillColor=none;align=center;verticalAlign=middle;whiteSpace=wrap;rounded=0;" parent="1" vertex="1">
          <mxGeometry x="190" y="450" width="200" height="50" as="geometry" />
        </mxCell>
      </root>
    </mxGraphModel>
  </diagram>
  <diagram name="普通聊天下的架构" id="VZDM5TYmctnz_xgUdN-r">
    <mxGraphModel dx="1298" dy="834" grid="1" gridSize="10" guides="1" tooltips="1" connect="1" arrows="1" fold="1" page="1" pageScale="1" pageWidth="827" pageHeight="1169" math="0" shadow="0">
      <root>
        <mxCell id="VJfIBsu-8aprxcizixco-0" />
        <mxCell id="VJfIBsu-8aprxcizixco-1" parent="VJfIBsu-8aprxcizixco-0" />
        <mxCell id="VJfIBsu-8aprxcizixco-54" value="mobile" style="rounded=0;whiteSpace=wrap;html=1;fillColor=#fff2cc;strokeColor=#d6b656;" vertex="1" parent="VJfIBsu-8aprxcizixco-1">
          <mxGeometry x="185" y="480" width="70" height="30" as="geometry" />
        </mxCell>
        <mxCell id="VJfIBsu-8aprxcizixco-57" value="proxy" style="rounded=1;whiteSpace=wrap;html=1;fillColor=#60a917;strokeColor=#2D7600;fontColor=#ffffff;" vertex="1" parent="VJfIBsu-8aprxcizixco-1">
          <mxGeometry x="185" y="590" width="80" height="30" as="geometry" />
        </mxCell>
        <mxCell id="VJfIBsu-8aprxcizixco-58" value="proxy" style="rounded=1;whiteSpace=wrap;html=1;fillColor=#60a917;strokeColor=#2D7600;fontColor=#ffffff;" vertex="1" parent="VJfIBsu-8aprxcizixco-1">
          <mxGeometry x="295" y="590" width="80" height="30" as="geometry" />
        </mxCell>
        <mxCell id="VJfIBsu-8aprxcizixco-59" value="proxy" style="rounded=1;whiteSpace=wrap;html=1;fillColor=#60a917;strokeColor=#2D7600;fontColor=#ffffff;" vertex="1" parent="VJfIBsu-8aprxcizixco-1">
          <mxGeometry x="405" y="590" width="80" height="30" as="geometry" />
        </mxCell>
        <mxCell id="VJfIBsu-8aprxcizixco-61" value="redis" style="rounded=1;whiteSpace=wrap;html=1;fillColor=#f0a30a;strokeColor=#BD7000;fontColor=#ffffff;" vertex="1" parent="VJfIBsu-8aprxcizixco-1">
          <mxGeometry x="620" y="590" width="80" height="30" as="geometry" />
        </mxCell>
        <mxCell id="VJfIBsu-8aprxcizixco-62" value="pushService" style="rounded=1;whiteSpace=wrap;html=1;fillColor=#f0a30a;strokeColor=#BD7000;fontColor=#ffffff;" vertex="1" parent="VJfIBsu-8aprxcizixco-1">
          <mxGeometry x="300" y="705" width="80" height="30" as="geometry" />
        </mxCell>
        <mxCell id="VJfIBsu-8aprxcizixco-64" value="" style="endArrow=classic;html=1;exitX=1;exitY=0.5;exitDx=0;exitDy=0;entryX=0.5;entryY=1;entryDx=0;entryDy=0;" edge="1" parent="VJfIBsu-8aprxcizixco-1" source="VJfIBsu-8aprxcizixco-62" target="VJfIBsu-8aprxcizixco-61">
          <mxGeometry width="50" height="50" relative="1" as="geometry">
            <mxPoint x="455" y="420" as="sourcePoint" />
            <mxPoint x="505" y="370" as="targetPoint" />
            <Array as="points">
              <mxPoint x="660" y="720" />
            </Array>
          </mxGeometry>
        </mxCell>
        <mxCell id="VJfIBsu-8aprxcizixco-65" value="" style="endArrow=classic;html=1;exitX=0.5;exitY=1;exitDx=0;exitDy=0;" edge="1" parent="VJfIBsu-8aprxcizixco-1" source="VJfIBsu-8aprxcizixco-54">
          <mxGeometry width="50" height="50" relative="1" as="geometry">
            <mxPoint x="455" y="420" as="sourcePoint" />
            <mxPoint x="220" y="588" as="targetPoint" />
          </mxGeometry>
        </mxCell>
        <mxCell id="VJfIBsu-8aprxcizixco-67" value="mobile" style="rounded=0;whiteSpace=wrap;html=1;fillColor=#fff2cc;strokeColor=#d6b656;" vertex="1" parent="VJfIBsu-8aprxcizixco-1">
          <mxGeometry x="300" y="480" width="70" height="30" as="geometry" />
        </mxCell>
        <mxCell id="VJfIBsu-8aprxcizixco-68" value="" style="endArrow=classic;html=1;exitX=0.5;exitY=1;exitDx=0;exitDy=0;" edge="1" parent="VJfIBsu-8aprxcizixco-1" source="VJfIBsu-8aprxcizixco-67">
          <mxGeometry width="50" height="50" relative="1" as="geometry">
            <mxPoint x="570" y="420" as="sourcePoint" />
            <mxPoint x="335" y="588" as="targetPoint" />
          </mxGeometry>
        </mxCell>
        <mxCell id="VJfIBsu-8aprxcizixco-69" value="mobile" style="rounded=0;whiteSpace=wrap;html=1;fillColor=#fff2cc;strokeColor=#d6b656;" vertex="1" parent="VJfIBsu-8aprxcizixco-1">
          <mxGeometry x="415" y="480" width="70" height="30" as="geometry" />
        </mxCell>
        <mxCell id="VJfIBsu-8aprxcizixco-70" value="" style="endArrow=classic;html=1;exitX=0.5;exitY=1;exitDx=0;exitDy=0;" edge="1" parent="VJfIBsu-8aprxcizixco-1" source="VJfIBsu-8aprxcizixco-69">
          <mxGeometry width="50" height="50" relative="1" as="geometry">
            <mxPoint x="685" y="420" as="sourcePoint" />
            <mxPoint x="450" y="588" as="targetPoint" />
          </mxGeometry>
        </mxCell>
        <mxCell id="2drjCn2ogTcZ_iqbtkEm-0" value="" style="endArrow=classic;html=1;exitX=0.5;exitY=1;exitDx=0;exitDy=0;" edge="1" parent="VJfIBsu-8aprxcizixco-1">
          <mxGeometry width="50" height="50" relative="1" as="geometry">
            <mxPoint x="230" y="511" as="sourcePoint" />
            <mxPoint x="230" y="589" as="targetPoint" />
          </mxGeometry>
        </mxCell>
        <mxCell id="2drjCn2ogTcZ_iqbtkEm-1" value="" style="endArrow=classic;html=1;exitX=0.638;exitY=0.033;exitDx=0;exitDy=0;exitPerimeter=0;entryX=0.671;entryY=1.033;entryDx=0;entryDy=0;entryPerimeter=0;" edge="1" parent="VJfIBsu-8aprxcizixco-1" source="VJfIBsu-8aprxcizixco-58" target="VJfIBsu-8aprxcizixco-67">
          <mxGeometry width="50" height="50" relative="1" as="geometry">
            <mxPoint x="455" y="440" as="sourcePoint" />
            <mxPoint x="505" y="390" as="targetPoint" />
          </mxGeometry>
        </mxCell>
        <mxCell id="2drjCn2ogTcZ_iqbtkEm-3" value="1.进群" style="text;html=1;strokeColor=none;fillColor=none;align=center;verticalAlign=middle;whiteSpace=wrap;rounded=0;" vertex="1" parent="VJfIBsu-8aprxcizixco-1">
          <mxGeometry x="175" y="540" width="40" height="20" as="geometry" />
        </mxCell>
        <mxCell id="2drjCn2ogTcZ_iqbtkEm-4" value="" style="endArrow=classic;html=1;exitX=1;exitY=0.5;exitDx=0;exitDy=0;entryX=0;entryY=0.5;entryDx=0;entryDy=0;" edge="1" parent="VJfIBsu-8aprxcizixco-1" source="VJfIBsu-8aprxcizixco-59" target="VJfIBsu-8aprxcizixco-61">
          <mxGeometry width="50" height="50" relative="1" as="geometry">
            <mxPoint x="455" y="560" as="sourcePoint" />
            <mxPoint x="505" y="510" as="targetPoint" />
          </mxGeometry>
        </mxCell>
        <mxCell id="jUZYdllcSlU3KsRDdU0a-0" value="" style="endArrow=classic;html=1;exitX=0.75;exitY=0;exitDx=0;exitDy=0;" edge="1" parent="VJfIBsu-8aprxcizixco-1" source="VJfIBsu-8aprxcizixco-59">
          <mxGeometry width="50" height="50" relative="1" as="geometry">
            <mxPoint x="455" y="680" as="sourcePoint" />
            <mxPoint x="465" y="510" as="targetPoint" />
          </mxGeometry>
        </mxCell>
        <mxCell id="jUZYdllcSlU3KsRDdU0a-2" value="1.进群" style="text;html=1;strokeColor=none;fillColor=none;align=center;verticalAlign=middle;whiteSpace=wrap;rounded=0;" vertex="1" parent="VJfIBsu-8aprxcizixco-1">
          <mxGeometry x="294" y="540" width="40" height="20" as="geometry" />
        </mxCell>
        <mxCell id="jUZYdllcSlU3KsRDdU0a-3" value="1.进群" style="text;html=1;strokeColor=none;fillColor=none;align=center;verticalAlign=middle;whiteSpace=wrap;rounded=0;" vertex="1" parent="VJfIBsu-8aprxcizixco-1">
          <mxGeometry x="405" y="540" width="40" height="20" as="geometry" />
        </mxCell>
        <mxCell id="jUZYdllcSlU3KsRDdU0a-5" value="3.发消息" style="text;html=1;strokeColor=none;fillColor=none;align=center;verticalAlign=middle;whiteSpace=wrap;rounded=0;" vertex="1" parent="VJfIBsu-8aprxcizixco-1">
          <mxGeometry x="235" y="540" width="50" height="20" as="geometry" />
        </mxCell>
        <mxCell id="jUZYdllcSlU3KsRDdU0a-6" value="2.上报在线状态" style="text;html=1;strokeColor=none;fillColor=none;align=center;verticalAlign=middle;whiteSpace=wrap;rounded=0;" vertex="1" parent="VJfIBsu-8aprxcizixco-1">
          <mxGeometry x="505" y="580" width="110" height="20" as="geometry" />
        </mxCell>
        <mxCell id="jUZYdllcSlU3KsRDdU0a-7" value="4.消息处理" style="text;html=1;strokeColor=none;fillColor=none;align=center;verticalAlign=middle;whiteSpace=wrap;rounded=0;" vertex="1" parent="VJfIBsu-8aprxcizixco-1">
          <mxGeometry x="160" y="660" width="70" height="20" as="geometry" />
        </mxCell>
        <mxCell id="jUZYdllcSlU3KsRDdU0a-8" value="" style="endArrow=classic;html=1;exitX=0.5;exitY=1;exitDx=0;exitDy=0;entryX=0;entryY=0.5;entryDx=0;entryDy=0;" edge="1" parent="VJfIBsu-8aprxcizixco-1" source="VJfIBsu-8aprxcizixco-57" target="VJfIBsu-8aprxcizixco-62">
          <mxGeometry width="50" height="50" relative="1" as="geometry">
            <mxPoint x="455" y="740" as="sourcePoint" />
            <mxPoint x="505" y="690" as="targetPoint" />
            <Array as="points">
              <mxPoint x="225" y="720" />
            </Array>
          </mxGeometry>
        </mxCell>
        <mxCell id="jUZYdllcSlU3KsRDdU0a-9" value="5.查询群用户在线状态" style="text;html=1;strokeColor=none;fillColor=none;align=center;verticalAlign=middle;whiteSpace=wrap;rounded=0;" vertex="1" parent="VJfIBsu-8aprxcizixco-1">
          <mxGeometry x="499" y="700" width="130" height="20" as="geometry" />
        </mxCell>
        <mxCell id="jUZYdllcSlU3KsRDdU0a-10" value="" style="endArrow=classic;html=1;entryX=0.5;entryY=1;entryDx=0;entryDy=0;" edge="1" parent="VJfIBsu-8aprxcizixco-1" target="VJfIBsu-8aprxcizixco-58">
          <mxGeometry width="50" height="50" relative="1" as="geometry">
            <mxPoint x="335" y="700" as="sourcePoint" />
            <mxPoint x="505" y="660" as="targetPoint" />
          </mxGeometry>
        </mxCell>
        <mxCell id="jUZYdllcSlU3KsRDdU0a-11" value="" style="endArrow=classic;html=1;entryX=0.5;entryY=1;entryDx=0;entryDy=0;exitX=1;exitY=0.25;exitDx=0;exitDy=0;" edge="1" parent="VJfIBsu-8aprxcizixco-1" source="VJfIBsu-8aprxcizixco-62" target="VJfIBsu-8aprxcizixco-59">
          <mxGeometry width="50" height="50" relative="1" as="geometry">
            <mxPoint x="455" y="710" as="sourcePoint" />
            <mxPoint x="505" y="660" as="targetPoint" />
            <Array as="points">
              <mxPoint x="445" y="713" />
            </Array>
          </mxGeometry>
        </mxCell>
        <mxCell id="jUZYdllcSlU3KsRDdU0a-14" value="6.下发消息" style="text;html=1;strokeColor=none;fillColor=none;align=center;verticalAlign=middle;whiteSpace=wrap;rounded=0;" vertex="1" parent="VJfIBsu-8aprxcizixco-1">
          <mxGeometry x="245" y="660" width="74" height="20" as="geometry" />
        </mxCell>
        <mxCell id="jUZYdllcSlU3KsRDdU0a-15" value="6.下发消息" style="text;html=1;strokeColor=none;fillColor=none;align=center;verticalAlign=middle;whiteSpace=wrap;rounded=0;" vertex="1" parent="VJfIBsu-8aprxcizixco-1">
          <mxGeometry x="445" y="660" width="74" height="20" as="geometry" />
        </mxCell>
      </root>
    </mxGraphModel>
  </diagram>
  <diagram name="直播互动下的架构" id="lrTOSK5MlU-2a_dU9IhW">
    <mxGraphModel dx="1298" dy="834" grid="1" gridSize="10" guides="1" tooltips="1" connect="1" arrows="1" fold="1" page="1" pageScale="1" pageWidth="827" pageHeight="1169" math="0" shadow="0">
      <root>
        <mxCell id="0oO9RipKE-Wbn7rLmkA9-0" />
        <mxCell id="0oO9RipKE-Wbn7rLmkA9-1" parent="0oO9RipKE-Wbn7rLmkA9-0" />
        <mxCell id="0oO9RipKE-Wbn7rLmkA9-54" value="mobile" style="rounded=0;whiteSpace=wrap;html=1;fillColor=#fff2cc;strokeColor=#d6b656;" vertex="1" parent="0oO9RipKE-Wbn7rLmkA9-1">
          <mxGeometry x="210" y="530" width="70" height="30" as="geometry" />
        </mxCell>
        <mxCell id="0oO9RipKE-Wbn7rLmkA9-55" value="proxy" style="rounded=1;whiteSpace=wrap;html=1;fillColor=#60a917;strokeColor=#2D7600;fontColor=#ffffff;" vertex="1" parent="0oO9RipKE-Wbn7rLmkA9-1">
          <mxGeometry x="210" y="640" width="80" height="30" as="geometry" />
        </mxCell>
        <mxCell id="0oO9RipKE-Wbn7rLmkA9-56" value="proxy" style="rounded=1;whiteSpace=wrap;html=1;fillColor=#60a917;strokeColor=#2D7600;fontColor=#ffffff;" vertex="1" parent="0oO9RipKE-Wbn7rLmkA9-1">
          <mxGeometry x="320" y="640" width="80" height="30" as="geometry" />
        </mxCell>
        <mxCell id="0oO9RipKE-Wbn7rLmkA9-57" value="proxy" style="rounded=1;whiteSpace=wrap;html=1;fillColor=#60a917;strokeColor=#2D7600;fontColor=#ffffff;" vertex="1" parent="0oO9RipKE-Wbn7rLmkA9-1">
          <mxGeometry x="430" y="640" width="80" height="30" as="geometry" />
        </mxCell>
        <mxCell id="0oO9RipKE-Wbn7rLmkA9-58" value="redis" style="rounded=1;whiteSpace=wrap;html=1;fillColor=#f0a30a;strokeColor=#BD7000;fontColor=#ffffff;" vertex="1" parent="0oO9RipKE-Wbn7rLmkA9-1">
          <mxGeometry x="645" y="640" width="80" height="30" as="geometry" />
        </mxCell>
        <mxCell id="0oO9RipKE-Wbn7rLmkA9-59" value="pushService" style="rounded=1;whiteSpace=wrap;html=1;fillColor=#f0a30a;strokeColor=#BD7000;fontColor=#ffffff;" vertex="1" parent="0oO9RipKE-Wbn7rLmkA9-1">
          <mxGeometry x="210" y="760" width="80" height="30" as="geometry" />
        </mxCell>
        <mxCell id="0oO9RipKE-Wbn7rLmkA9-60" value="" style="endArrow=classic;html=1;exitX=1;exitY=0.5;exitDx=0;exitDy=0;entryX=0.5;entryY=1;entryDx=0;entryDy=0;" edge="1" parent="0oO9RipKE-Wbn7rLmkA9-1" source="0oO9RipKE-Wbn7rLmkA9-59" target="0oO9RipKE-Wbn7rLmkA9-58">
          <mxGeometry width="50" height="50" relative="1" as="geometry">
            <mxPoint x="480" y="470" as="sourcePoint" />
            <mxPoint x="530" y="420" as="targetPoint" />
            <Array as="points">
              <mxPoint x="685" y="770" />
            </Array>
          </mxGeometry>
        </mxCell>
        <mxCell id="0oO9RipKE-Wbn7rLmkA9-61" value="" style="endArrow=classic;html=1;exitX=0.5;exitY=1;exitDx=0;exitDy=0;" edge="1" parent="0oO9RipKE-Wbn7rLmkA9-1" source="0oO9RipKE-Wbn7rLmkA9-54">
          <mxGeometry width="50" height="50" relative="1" as="geometry">
            <mxPoint x="480" y="470" as="sourcePoint" />
            <mxPoint x="245" y="638" as="targetPoint" />
          </mxGeometry>
        </mxCell>
        <mxCell id="0oO9RipKE-Wbn7rLmkA9-62" value="mobile" style="rounded=0;whiteSpace=wrap;html=1;fillColor=#fff2cc;strokeColor=#d6b656;" vertex="1" parent="0oO9RipKE-Wbn7rLmkA9-1">
          <mxGeometry x="325" y="530" width="70" height="30" as="geometry" />
        </mxCell>
        <mxCell id="0oO9RipKE-Wbn7rLmkA9-63" value="" style="endArrow=classic;html=1;exitX=0.5;exitY=1;exitDx=0;exitDy=0;" edge="1" parent="0oO9RipKE-Wbn7rLmkA9-1" source="0oO9RipKE-Wbn7rLmkA9-62">
          <mxGeometry width="50" height="50" relative="1" as="geometry">
            <mxPoint x="595" y="470" as="sourcePoint" />
            <mxPoint x="360" y="638" as="targetPoint" />
          </mxGeometry>
        </mxCell>
        <mxCell id="0oO9RipKE-Wbn7rLmkA9-64" value="mobile" style="rounded=0;whiteSpace=wrap;html=1;fillColor=#fff2cc;strokeColor=#d6b656;" vertex="1" parent="0oO9RipKE-Wbn7rLmkA9-1">
          <mxGeometry x="440" y="530" width="70" height="30" as="geometry" />
        </mxCell>
        <mxCell id="0oO9RipKE-Wbn7rLmkA9-65" value="" style="endArrow=classic;html=1;exitX=0.5;exitY=1;exitDx=0;exitDy=0;" edge="1" parent="0oO9RipKE-Wbn7rLmkA9-1" source="0oO9RipKE-Wbn7rLmkA9-64">
          <mxGeometry width="50" height="50" relative="1" as="geometry">
            <mxPoint x="710" y="470" as="sourcePoint" />
            <mxPoint x="475" y="638" as="targetPoint" />
          </mxGeometry>
        </mxCell>
        <mxCell id="0oO9RipKE-Wbn7rLmkA9-66" value="" style="endArrow=classic;html=1;exitX=0.5;exitY=1;exitDx=0;exitDy=0;" edge="1" parent="0oO9RipKE-Wbn7rLmkA9-1">
          <mxGeometry width="50" height="50" relative="1" as="geometry">
            <mxPoint x="255" y="561" as="sourcePoint" />
            <mxPoint x="255" y="639" as="targetPoint" />
          </mxGeometry>
        </mxCell>
        <mxCell id="0oO9RipKE-Wbn7rLmkA9-67" value="" style="endArrow=classic;html=1;exitX=0.638;exitY=0.033;exitDx=0;exitDy=0;exitPerimeter=0;entryX=0.671;entryY=1.033;entryDx=0;entryDy=0;entryPerimeter=0;" edge="1" parent="0oO9RipKE-Wbn7rLmkA9-1" source="0oO9RipKE-Wbn7rLmkA9-56" target="0oO9RipKE-Wbn7rLmkA9-62">
          <mxGeometry width="50" height="50" relative="1" as="geometry">
            <mxPoint x="480" y="490" as="sourcePoint" />
            <mxPoint x="530" y="440" as="targetPoint" />
          </mxGeometry>
        </mxCell>
        <mxCell id="0oO9RipKE-Wbn7rLmkA9-68" value="" style="endArrow=classic;html=1;exitX=0.75;exitY=0;exitDx=0;exitDy=0;" edge="1" parent="0oO9RipKE-Wbn7rLmkA9-1">
          <mxGeometry width="50" height="50" relative="1" as="geometry">
            <mxPoint x="490" y="640" as="sourcePoint" />
            <mxPoint x="493" y="560" as="targetPoint" />
          </mxGeometry>
        </mxCell>
        <mxCell id="0oO9RipKE-Wbn7rLmkA9-69" value="Text" style="text;html=1;strokeColor=none;fillColor=none;align=center;verticalAlign=middle;whiteSpace=wrap;rounded=0;" vertex="1" parent="0oO9RipKE-Wbn7rLmkA9-1">
          <mxGeometry x="200" y="590" width="40" height="20" as="geometry" />
        </mxCell>
        <mxCell id="0oO9RipKE-Wbn7rLmkA9-70" value="" style="endArrow=classic;html=1;exitX=1;exitY=0.5;exitDx=0;exitDy=0;entryX=0;entryY=0.5;entryDx=0;entryDy=0;" edge="1" parent="0oO9RipKE-Wbn7rLmkA9-1" source="0oO9RipKE-Wbn7rLmkA9-57" target="0oO9RipKE-Wbn7rLmkA9-58">
          <mxGeometry width="50" height="50" relative="1" as="geometry">
            <mxPoint x="480" y="610" as="sourcePoint" />
            <mxPoint x="530" y="560" as="targetPoint" />
          </mxGeometry>
        </mxCell>
      </root>
    </mxGraphModel>
  </diagram>
</mxfile>
